<svg
  width="128"
  height="128"
  xmlns="http://www.w3.org/2000/svg">
  <rect width="128" height="128" fill="#4D4D4D" />
  <rect x="16" y="16" width="64" height="10" fill="white" />
  <svg x="56" y="56" width="50.699" height="51.01" viewBox="0 0 50.699 51.01" xmlns="http://www.w3.org/2000/svg"><g id="svgGroup" stroke-linecap="round" fill-rule="nonzero" font-size="9pt" stroke="#ffffff" stroke-width="0.5" fill="#ffffff" style="stroke:#ffffff;stroke-width:0.5;fill:#ffffff"><path d="M 0.327 49.538 L 0.327 38.594 Q 1.415 38.914 2.887 39.234 Q 4.359 39.554 5.991 39.778 Q 7.623 40.002 9.287 40.13 Q 10.951 40.258 12.423 40.258 Q 14.407 40.258 15.591 40.066 Q 16.775 39.874 17.415 39.458 Q 18.055 39.042 18.247 38.338 Q 18.439 37.634 18.439 36.61 Q 18.439 35.906 18.215 35.33 Q 17.991 34.754 17.319 34.274 Q 16.647 33.794 15.399 33.314 Q 14.151 32.834 12.039 32.322 Q 8.391 31.49 6.055 30.434 Q 3.719 29.378 2.375 27.842 Q 1.031 26.306 0.519 24.226 Q 0.007 22.146 0.007 19.138 Q 0.007 15.234 1.223 12.578 Q 2.439 9.922 4.711 8.29 Q 6.983 6.658 10.215 5.986 Q 13.447 5.314 17.415 5.314 A 41.706 41.706 0 0 1 24.241 5.779 A 22.077 22.077 0 0 1 24.327 5.794 Q 27.079 6.274 28.935 6.914 L 28.935 17.09 Q 28.231 16.834 26.919 16.578 Q 25.607 16.322 24.071 16.098 Q 22.535 15.874 20.935 15.714 Q 19.335 15.554 17.991 15.554 Q 14.919 15.554 13.607 16.29 Q 12.295 17.026 12.295 18.626 Q 12.295 19.394 12.519 19.906 Q 12.743 20.418 13.447 20.834 Q 14.151 21.25 15.431 21.634 Q 16.711 22.018 18.759 22.53 A 34.19 34.19 0 0 1 25.028 24.719 A 17.083 17.083 0 0 1 25.383 24.898 Q 27.847 26.178 29.127 27.842 Q 30.407 29.506 30.791 31.746 Q 31.175 33.986 31.175 36.994 Q 31.175 40.322 30.279 42.914 Q 29.383 45.506 27.303 47.298 Q 25.223 49.09 21.767 50.05 A 31.215 31.215 0 0 1 14.084 51.002 A 53.407 53.407 0 0 1 13.127 51.01 Q 9.415 51.01 6.055 50.562 Q 2.695 50.114 0.327 49.538 Z M 38.023 50.37 L 38.023 15.81 L 50.183 15.81 L 50.183 50.37 L 38.023 50.37 Z M 44.103 12.226 Q 41.991 12.226 40.711 12.034 Q 39.431 11.842 38.727 11.234 Q 38.023 10.626 37.767 9.378 Q 37.511 8.13 37.511 6.018 Q 37.511 3.906 37.767 2.722 Q 38.023 1.538 38.727 0.93 Q 39.431 0.322 40.711 0.162 Q 41.991 0.002 44.103 0.002 Q 46.215 0.002 47.495 0.162 Q 48.775 0.322 49.511 0.93 Q 50.247 1.538 50.471 2.722 Q 50.695 3.906 50.695 6.018 Q 50.695 8.13 50.471 9.378 Q 50.247 10.626 49.511 11.234 Q 48.775 11.842 47.495 12.034 Q 46.215 12.226 44.103 12.226 Z"/></g></svg>

</svg>